<?xml version="1.0" encoding="UTF-8" standalone="no"?>
<svg
   xmlns="http://www.w3.org/2000/svg"
   viewBox="0 0 21.858031 7.5139982"
   height="7.513998mm"
   width="21.85803mm">
  <g
     transform="translate(-47.416438,-77.071288)"
     id="layer1">
    <rect
       transform="rotate(-90)"
       id="rect957"
       height="1.0095693"
       y="72.141853"
       x="-93.950905"
       class="cls-1"
       width="0"
       style="fill:#ffffff;fill-opacity:1;stroke:none;stroke-width:0.97375888px;stroke-miterlimit:10" />
    <rect
       transform="rotate(-90)"
       id="rect959"
       height="1.0095693"
       y="72.141853"
       x="-92.072464"
       class="cls-1"
       width="0"
       style="fill:#ffffff;fill-opacity:1;stroke:none;stroke-width:0.97375888px;stroke-miterlimit:10" />
    <rect
       transform="rotate(-90)"
       id="rect961"
       height="1.0095693"
       y="72.141853"
       x="-90.194031"
       class="cls-1"
       width="0"
       style="fill:#ffffff;fill-opacity:1;stroke:none;stroke-width:0.97375888px;stroke-miterlimit:10" />
    <path
       id="path1061"
       d="m 51.291593,77.07141 c 0.341064,0 0.633896,0.06029 0.878498,0.180869 0.244602,0.117131 0.430636,0.291111 0.558104,0.521931 0.127469,0.227377 0.191204,0.501263 0.191204,0.821655 v 0.800986 c 0,0.234265 -0.04134,0.440971 -0.124023,0.620115 -0.08268,0.175699 -0.199816,0.320394 -0.351401,0.434083 -0.151585,0.113689 -0.335897,0.191201 -0.552937,0.232545 0.237712,0.03445 0.439251,0.110241 0.604616,0.227375 0.168808,0.117134 0.298,0.270442 0.387572,0.45992 0.08957,0.186037 0.134357,0.404799 0.134357,0.656291 v 1.007692 c 0,0.327282 -0.06373,0.606335 -0.1912,0.837158 -0.124024,0.23082 -0.30489,0.408241 -0.542603,0.532267 -0.237712,0.120576 -0.525377,0.180867 -0.862996,0.180867 h 2.444294 V 77.07141 Z"
       style="fill:#ffffff;fill-opacity:1;stroke:none;stroke-width:0.97375888px;stroke-miterlimit:10" />
    <path
       id="path1059"
       d="m 55.001958,77.07141 v 6.433717 h 2.046388 v 1.080037 h 0.666626 V 77.07141 Z"
       style="fill:#2c7871;fill-opacity:1;stroke:none;stroke-width:0.97375888px;stroke-miterlimit:10" />
    <path
       id="path1057"
       d="m 58.851852,77.07141 v 7.513754 h 2.072744 c -0.132943,-0.03413 -0.258612,-0.07667 -0.372587,-0.134358 -0.275608,-0.141251 -0.487481,-0.346231 -0.635621,-0.61495 -0.144696,-0.268719 -0.215318,-0.596003 -0.211874,-0.981853 v -0.387572 l 1.126546,-0.01034 v 0.372069 c 0,0.230823 0.06201,0.409966 0.186037,0.537438 0.127468,0.127457 0.308337,0.1912 0.542602,0.1912 0.22393,0 0.396184,-0.06201 0.516763,-0.186033 0.124023,-0.127471 0.186036,-0.306615 0.186036,-0.537435 v -0.656291 c 0,-0.16192 -0.04134,-0.299725 -0.124023,-0.413412 -0.08268,-0.113688 -0.189481,-0.208428 -0.320395,-0.28422 -0.127468,-0.07924 -0.303167,-0.172255 -0.5271,-0.279054 -0.01033,-0.0034 -0.02067,-0.0069 -0.03101,-0.01034 -0.01034,-0.0069 -0.02067,-0.01207 -0.03101,-0.0155 l -0.06718,-0.031 C 60.86551,80.998817 60.617463,80.854124 60.417647,80.709429 60.217831,80.564736 60.049022,80.368365 59.911219,80.120318 59.776861,79.872271 59.70968,79.562211 59.70968,79.190141 V 78.7819 c 0,-0.378963 0.07063,-0.7028 0.211873,-0.971519 0.144696,-0.268716 0.354846,-0.471977 0.630455,-0.609782 0.110214,-0.05511 0.231788,-0.09612 0.360182,-0.129191 z"
       style="fill:#13403b;fill-opacity:1;stroke:none;stroke-width:0.97375888px;stroke-miterlimit:10" />
    <path
       id="path1055"
       d="m 62.167931,77.07141 c 0.127836,0.03406 0.249018,0.07702 0.358116,0.134358 0.268716,0.137806 0.47198,0.342789 0.609783,0.61495 0.14125,0.268716 0.213595,0.594281 0.21704,0.976686 v 0.408244 l -1.131713,0.01034 v -0.387572 c 0,-0.237713 -0.05857,-0.418582 -0.175699,-0.542603 -0.117134,-0.127471 -0.282498,-0.191203 -0.496094,-0.191203 -0.230822,0 -0.406522,0.06029 -0.5271,0.180866 -0.120579,0.117134 -0.180867,0.280779 -0.180867,0.490927 v 0.485759 c 0,0.165364 0.03962,0.306615 0.118854,0.423746 0.08268,0.117136 0.186036,0.213598 0.31006,0.289388 0.124023,0.07235 0.294555,0.160197 0.511595,0.263551 0.03101,0.01377 0.06029,0.02928 0.08785,0.04651 0.03101,0.01377 0.06201,0.02928 0.09302,0.04651 0.01033,0.0034 0.0224,0.0086 0.03618,0.01551 0.01377,0.0034 0.02583,0.0086 0.03617,0.0155 0.292833,0.141249 0.528823,0.275606 0.70797,0.403075 0.179144,0.127468 0.332449,0.308337 0.45992,0.542604 0.127468,0.230813 0.191201,0.52882 0.191201,0.894001 v 0.656291 c 0,0.38585 -0.07235,0.714857 -0.217041,0.987021 -0.141248,0.272163 -0.349676,0.478869 -0.625284,0.620116 -0.108892,0.05513 -0.229957,0.09612 -0.3576,0.129191 h 3.091799 C 65.153143,84.551042 65.027477,84.5085 64.913499,84.45081 64.637891,84.30956 64.426018,84.104579 64.27788,83.835861 64.133185,83.567142 64.062562,83.239857 64.066007,82.854008 v -0.387573 l 1.126546,-0.01034 v 0.372065 c 0,0.230823 0.06201,0.409966 0.186034,0.537438 0.127468,0.127455 0.308334,0.1912 0.542602,0.1912 0.223933,0 0.396187,-0.06201 0.516765,-0.186033 0.124024,-0.127471 0.186034,-0.306615 0.186034,-0.537435 v -0.656291 c 0,-0.16192 -0.04134,-0.299725 -0.124023,-0.413412 -0.08268,-0.113688 -0.189479,-0.208428 -0.320392,-0.28422 -0.127471,-0.07924 -0.30317,-0.172255 -0.5271,-0.279054 -0.01034,-0.0034 -0.02067,-0.0069 -0.03101,-0.01034 -0.01033,-0.0069 -0.02067,-0.01207 -0.03101,-0.0155 l -0.06718,-0.031 C 65.226993,80.998818 64.978946,80.854125 64.779132,80.70943 64.579316,80.564737 64.410507,80.368366 64.272704,80.120319 64.138343,79.872272 64.071166,79.562212 64.071166,79.190142 V 78.7819 c 0,-0.378963 0.07062,-0.7028 0.211873,-0.971519 0.144692,-0.268716 0.354843,-0.471977 0.630451,-0.609782 0.110215,-0.05511 0.231789,-0.09612 0.360186,-0.129191 z"
       style="fill:#2c7871;fill-opacity:1;stroke:none;stroke-width:0.97375888px;stroke-miterlimit:10" />
    <path
       id="path1053"
       d="m 66.52942,77.07141 c 0.127839,0.03406 0.249021,0.07702 0.358119,0.134358 0.268716,0.137806 0.471977,0.342789 0.609783,0.61495 0.141248,0.268716 0.213595,0.594281 0.21704,0.976686 v 0.408244 l -1.131715,0.01033 V 78.82841 c 0,-0.237712 -0.05857,-0.418582 -0.1757,-0.542602 -0.117133,-0.127471 -0.282498,-0.191204 -0.496093,-0.191204 -0.230823,0 -0.406522,0.06029 -0.527101,0.180867 -0.120578,0.117133 -0.180866,0.280778 -0.180866,0.490926 v 0.485759 c 0,0.165365 0.03962,0.306615 0.118856,0.423746 0.08268,0.117136 0.186034,0.213598 0.310057,0.289388 0.124024,0.07235 0.294556,0.160197 0.511599,0.263552 0.031,0.01377 0.06029,0.02928 0.08785,0.04651 0.03101,0.01377 0.06201,0.02928 0.09302,0.04651 0.01034,0.0034 0.0224,0.0086 0.03617,0.0155 0.01378,0.0034 0.02583,0.0086 0.03617,0.01551 0.292833,0.141248 0.528822,0.275606 0.707966,0.403074 0.179147,0.127468 0.332452,0.308338 0.45992,0.542605 0.127469,0.230809 0.191204,0.52882 0.191204,0.894001 v 0.656291 c 0,0.38585 -0.07235,0.714856 -0.21704,0.98702 -0.141251,0.272161 -0.349679,0.478866 -0.625287,0.620114 -0.108892,0.05513 -0.229958,0.09612 -0.3576,0.129191 h 2.718696 v -2.350762 c -2.015614,0 -2.015614,-2.812748 0,-2.812748 V 77.07141 Z"
       style="fill:#ffffff;fill-opacity:1;stroke:none;stroke-width:0.97375888px;stroke-miterlimit:10" />
    <path
       id="path1051"
       d="m 50.557787,78.135945 v 2.025716 h 0.671793 c 0.179146,0 0.316949,-0.05857 0.413411,-0.175699 0.09991,-0.120579 0.149863,-0.29111 0.149863,-0.511598 v -0.785482 c 0,-0.175699 -0.04823,-0.311782 -0.144695,-0.408244 -0.09646,-0.09646 -0.232545,-0.144693 -0.408245,-0.144693 z"
       style="fill:#ffffff;fill-opacity:1;stroke:none;stroke-width:0.97375888px;stroke-miterlimit:10" />
    <path
       id="path955"
       d="m 50.557787,81.221029 v 2.2996 h 0.723468 c 0.192927,0 0.341067,-0.04823 0.444418,-0.144693 0.103354,-0.09991 0.15503,-0.237712 0.15503,-0.413411 v -0.992188 c 0,-0.158475 -0.02584,-0.292833 -0.07751,-0.403077 -0.04823,-0.113688 -0.120578,-0.199816 -0.21704,-0.258381 -0.09646,-0.05857 -0.210151,-0.08785 -0.341066,-0.08785 z"
       style="fill:#ffffff;fill-opacity:1;stroke:none;stroke-width:0.97375888px;stroke-miterlimit:10" />
    <rect
       ry="1.7938565"
       y="74.531532"
       x="37.885452"
       height="19.811354"
       width="34.912079"
       id="rect831"
       style="fill:#161616;fill-opacity:0;stroke:none;stroke-width:0.97895831;stroke-miterlimit:4;stroke-dasharray:none;stroke-opacity:1" />
    <flowRoot
       transform="scale(0.26458333)"
       style="font-style:normal;font-variant:normal;font-weight:normal;font-stretch:normal;font-size:40px;line-height:1.25;font-family:Bahnschrift;-inkscape-font-specification:Bahnschrift;letter-spacing:0px;word-spacing:0px;fill:#000000;fill-opacity:1;stroke:none"
       id="flowRoot815"
       xml:space="preserve"><flowRegion
         style="font-style:normal;font-variant:normal;font-weight:normal;font-stretch:normal;font-family:Bahnschrift;-inkscape-font-specification:Bahnschrift"
         id="flowRegion817"><rect
           style="font-style:normal;font-variant:normal;font-weight:normal;font-stretch:normal;font-family:Bahnschrift;-inkscape-font-specification:Bahnschrift"
           y="333.94824"
           x="80"
           height="394.28571"
           width="768.57141"
           id="rect819" /></flowRegion><flowPara
         id="flowPara821"></flowPara></flowRoot>    <g
       id="flowRoot823"
       style="font-style:normal;font-weight:normal;font-size:40px;line-height:1.25;font-family:sans-serif;letter-spacing:0px;word-spacing:0px;fill:#f8f8f8;fill-opacity:0.98492462;stroke:none"
       transform="matrix(0.26458333,0,0,0.26458333,18.151624,11.296457)"
       aria-label="BLISS" />
    <path
       style="fill:none;stroke-width:10.58333302"
       d="M -213.81022,-71.826543 H -2.14356 V 139.84012 h -211.66666 z"
       id="rect846" />
    <path
       id="path848"
       d="m 47.416438,77.071308 v 2.284241 c 0.413268,0 0.766433,0.150311 1.059478,0.443355 0.293045,0.293046 0.443317,0.646174 0.443317,1.059442 0,0.41327 -0.150272,0.773949 -0.443317,1.059478 -0.285532,0.293047 -0.64621,0.443321 -1.059478,0.443321 v 2.224141 h 1.783323 v -6.484695 l -0.01812,-1.015853 -0.976228,-0.01345 z"
       style="fill:#f5f5f5;fill-opacity:1;stroke-width:0.75139785" />
  </g>
</svg>
